<?xml version="1.0" standalone="no"?>
<!DOCTYPE svg PUBLIC "-//W3C//DTD SVG 20010904//EN"
 "http://www.w3.org/TR/2001/REC-SVG-20010904/DTD/svg10.dtd">
<svg version="1.0" xmlns="http://www.w3.org/2000/svg"
 width="260.000000pt" height="260.000000pt" viewBox="0 0 260.000000 260.000000"
 preserveAspectRatio="xMidYMid meet">
<metadata>
Created by potrace 1.14, written by Peter Selinger 2001-2017
</metadata>
<g transform="translate(0.000000,260.000000) scale(0.100000,-0.100000)"
fill="#000000" stroke="none">
<path d="M1445 2334 c-60 -47 -114 -89 -118 -93 -5 -5 8 -48 27 -96 20 -49 35
-90 33 -91 -2 -2 -129 44 -282 102 -348 132 -359 135 -405 116 -48 -19 -68
-39 -75 -73 -4 -16 -10 -29 -13 -29 -4 0 -32 9 -62 21 -87 33 -160 11 -185
-55 -13 -35 -58 -196 -70 -248 -2 -10 -15 -59 -29 -110 -13 -51 -29 -111 -35
-133 l-10 -40 -46 3 c-59 5 -78 -16 -120 -134 -25 -70 -30 -95 -23 -116 9 -26
60 -58 93 -58 9 0 14 -4 11 -8 -3 -5 -7 -20 -9 -33 -3 -14 -17 -73 -32 -131
-37 -151 -42 -145 177 -232 95 -38 191 -77 213 -87 22 -9 67 -27 100 -39 79
-30 83 -35 53 -62 l-26 -23 37 -90 c21 -49 41 -99 46 -110 4 -11 9 -22 10 -25
9 -24 32 -79 63 -155 l38 -89 95 -48 c52 -26 97 -47 101 -48 6 0 56 40 198
159 153 128 193 161 202 161 5 0 112 -40 236 -89 288 -112 263 -106 311 -81
48 24 63 45 87 123 14 45 21 56 33 51 60 -27 146 1 171 55 9 20 105 337 125
411 2 8 34 119 70 245 70 240 96 332 99 352 1 7 5 15 8 18 10 10 -10 67 -29
87 -10 10 -155 69 -323 133 -168 64 -347 132 -398 151 l-92 36 77 65 c43 36
81 70 84 75 7 10 -71 242 -86 257 -7 7 -215 93 -219 91 -1 0 -50 -39 -111 -86z
m148 -44 c-3 -12 0 -20 6 -20 7 0 10 4 7 8 -2 4 4 8 14 9 17 2 17 0 -2 -19
-16 -16 -22 -18 -29 -7 -10 17 -11 33 -2 42 10 11 11 8 6 -13z m77 -34 c0 -5
-3 -6 -6 -3 -11 10 -45 -13 -38 -25 4 -6 3 -8 -3 -5 -5 4 -20 -5 -32 -19 -14
-16 -28 -23 -40 -19 -10 3 -24 -1 -31 -10 -7 -8 -17 -12 -24 -8 -6 4 -17 8
-24 9 -22 4 -27 13 -12 27 9 8 11 8 6 0 -3 -6 -2 -14 4 -18 6 -3 11 4 11 17 1
20 2 21 6 3 8 -33 18 -37 38 -15 15 17 16 20 2 20 -8 0 -18 -6 -20 -12 -4 -10
-6 -10 -6 0 -2 22 31 27 45 7 8 -10 17 -15 21 -12 4 4 1 13 -5 19 -7 7 -12 16
-12 22 0 5 7 1 15 -10 14 -18 16 -18 44 13 16 17 32 29 35 26 3 -4 6 2 6 13 0
16 2 17 10 4 5 -8 10 -19 10 -24z m-110 8 c0 6 6 1 14 -10 8 -10 13 -20 11
-22 -5 -6 -45 32 -45 43 0 5 5 3 10 -5 5 -8 10 -11 10 -6z m150 -23 c0 -4 -7
-16 -16 -27 -8 -10 -13 -14 -10 -8 3 7 -1 14 -9 18 -19 7 -19 -4 -1 -29 13
-18 14 -18 27 3 8 12 18 22 23 22 4 0 3 -7 -4 -15 -9 -10 -9 -15 -1 -15 6 0
11 -5 11 -11 0 -8 -5 -8 -15 1 -16 13 -18 10 -9 -14 4 -11 11 -13 23 -6 12 6
18 5 18 -3 0 -9 -18 -12 -56 -11 -72 2 -86 -5 -66 -31 13 -18 16 -18 28 -4 12
16 111 23 101 8 -3 -5 -12 -5 -21 -2 -10 4 -14 2 -10 -4 4 -6 -1 -17 -10 -24
-9 -8 -14 -9 -11 -4 4 6 -2 16 -13 23 -20 13 -26 3 -8 -15 8 -8 8 -16 0 -30
-10 -16 -11 -16 -8 6 1 13 -3 26 -9 28 -7 2 -10 -6 -9 -21 2 -14 -3 -33 -11
-43 -14 -17 -14 -16 -4 5 7 14 7 22 1 22 -13 0 -34 -38 -27 -49 3 -4 -1 -8 -9
-8 -10 0 -11 5 -4 18 14 28 10 36 -7 14 -10 -12 -14 -14 -12 -5 3 8 -1 27 -8
42 -13 25 -13 27 3 21 16 -6 16 -5 4 10 -7 9 -16 15 -20 13 -4 -3 -7 4 -8 14
-1 11 2 22 8 25 5 3 6 0 3 -8 -3 -9 2 -13 15 -12 25 2 41 15 18 15 -9 0 -17 5
-17 10 0 7 6 7 19 0 26 -14 31 -13 31 6 0 8 -4 13 -9 9 -5 -3 -13 0 -17 6 -4
7 -3 9 3 6 5 -3 19 7 31 23 16 21 27 27 44 22 21 -5 22 -4 9 11 -12 15 -12 17
3 11 9 -3 16 -9 16 -13z m-170 2 c0 -5 -12 -9 -27 -10 -19 -1 -22 1 -12 8 17
11 39 12 39 2z m10 -77 c0 -3 -4 -8 -10 -11 -5 -3 -10 -1 -10 4 0 6 5 11 10
11 6 0 10 -2 10 -4z m-83 -21 c0 -8 -4 -12 -9 -9 -5 3 -6 10 -3 15 9 13 12 11
12 -6z m56 -18 c3 -8 2 -20 -3 -26 -5 -9 -7 -4 -7 13 0 29 2 32 10 13z m127
-7 c0 -5 -2 -10 -4 -10 -3 0 -8 5 -11 10 -3 6 -1 10 4 10 6 0 11 -4 11 -10z
m-150 -40 c0 -5 -2 -10 -4 -10 -3 0 -8 5 -11 10 -3 6 -1 10 4 10 6 0 11 -4 11
-10z m30 -20 c0 -5 -4 -10 -10 -10 -5 0 -10 5 -10 10 0 6 5 10 10 10 6 0 10
-4 10 -10z m20 -20 c-8 -5 -19 -10 -25 -10 -5 0 -3 5 5 10 8 5 20 10 25 10 6
0 3 -5 -5 -10z"/>
<path d="M1637 2196 c-3 -8 1 -22 9 -33 9 -10 13 -12 9 -5 -7 14 11 17 20 2 4
-6 11 -8 16 -4 6 3 2 12 -10 21 -12 8 -27 11 -34 7 -8 -5 -8 -2 2 9 7 9 9 17
3 17 -5 0 -12 -6 -15 -14z"/>
<path d="M1580 2115 c7 -8 17 -12 24 -8 6 3 3 -2 -6 -13 -17 -19 -13 -37 8
-41 10 -2 12 33 5 67 -1 3 -10 6 -22 7 -17 2 -18 -1 -9 -12z"/>
<path d="M1690 2116 c0 -2 7 -7 16 -10 8 -3 12 -2 9 4 -6 10 -25 14 -25 6z"/>
<path d="M1620 2080 c0 -5 7 -10 15 -10 8 0 15 5 15 10 0 6 -7 10 -15 10 -8 0
-15 -4 -15 -10z"/>
</g>
</svg>
